<svg xmlns="http://www.w3.org/2000/svg" width="93.927" height="58.044" viewBox="0 0 93.927 58.044">
  <g id="Group_69" data-name="Group 69" transform="translate(-120.689 2242.306)">
    <path id="Path_274" data-name="Path 274" d="M4.957,0,56.965.191a4.866,4.866,0,0,1,4.993,4.669L62,15.37A4.776,4.776,0,0,1,57.047,20L5.039,19.814A4.866,4.866,0,0,1,.046,15.145L0,4.635A4.776,4.776,0,0,1,4.957,0Z" transform="translate(120.686 -2198.404) rotate(-45)" fill="#00e211"/>
    <path id="Path_275" data-name="Path 275" d="M5.029.162,57.038-.026a4.776,4.776,0,0,1,4.955,4.633l-.044,10.51a4.866,4.866,0,0,1-4.993,4.669l-52.008.188A4.776,4.776,0,0,1-.008,15.341L.036,4.831A4.866,4.866,0,0,1,5.029.162Z" transform="translate(170.763 -2242.282) rotate(45)" fill="#f82600"/>
    <circle id="Ellipse_59" data-name="Ellipse 59" cx="5" cy="5" r="5" transform="translate(162.485 -2204.402)" fill="#eceff0"/>
  </g>
</svg>
